<?xml version="1.0" encoding="iso-8859-1"?>
<!-- Uploaded to: SVG Repo, www.svgrepo.com, Generator: SVG Repo Mixer Tools -->
<svg version="1.1" id="Layer_1" xmlns="http://www.w3.org/2000/svg" xmlns:xlink="http://www.w3.org/1999/xlink" 
	 viewBox="0 0 512.008 512.008" xml:space="preserve">
<circle style="fill:#E1E5EA;" cx="256.004" cy="256" r="256"/>
<path d="M64.004,353.176V120.672c0-4.128,3.528-7.504,7.832-7.504h368.328c4.304,0,7.832,3.376,7.832,7.504v232.496H64.004V353.176z
	"/>
<path style="fill:#636363;" d="M448.004,353.176v32c0,4.4-3.528,8-7.832,8H71.836c-4.304,0-7.832-3.6-7.832-8v-32H448.004
	L448.004,353.176z"/>
<polygon style="fill:#C9C9C9;" points="200.004,449.176 312.004,449.176 304.004,393.176 208.004,393.176 "/>
<polygon style="fill:#AAAAAA;" points="304.004,393.176 208.004,393.176 203.02,428.08 305.868,406.224 "/>
<rect x="172.004" y="449.2" style="fill:#636363;" width="168" height="8"/>
<polygon style="fill:#939393;" points="208.004,393.176 304.004,393.176 304.548,396.96 205.516,410.624 "/>
<g>
	<rect x="153.044" y="288" style="fill:#E1E5EA;" width="205.976" height="8"/>
	<rect x="110.844" y="312.96" style="fill:#E1E5EA;" width="290.32" height="8"/>
</g>
<circle style="fill:#8AD5DD;" cx="147.316" cy="209.84" r="40.08"/>
<polygon style="fill:#333333;" points="144.324,227.648 129.3,212.624 134.956,206.968 143.668,215.68 160.708,194.464 
	166.94,199.464 "/>
<circle style="fill:#DB2B42;" cx="254.444" cy="209.84" r="40.08"/>
<polygon style="fill:#FFFFFF;" points="251.452,227.648 236.428,212.624 242.084,206.968 250.796,215.68 267.836,194.464 
	274.068,199.464 "/>
<circle style="fill:#8AD5DD;" cx="364.692" cy="209.84" r="40.08"/>
<polygon style="fill:#333333;" points="361.692,227.648 346.668,212.624 352.324,206.968 361.036,215.68 378.076,194.464 
	384.308,199.464 "/>
<path d="M488.588,512.008H365.052c-4.08,0-7.416-3.336-7.416-7.416V272.344c0-4.08,3.336-7.416,7.416-7.416h123.536
	c4.08,0,7.416,3.336,7.416,7.416v232.248C496.004,508.672,492.668,512.008,488.588,512.008z"/>
<rect x="365.052" y="284.696" width="123.536" height="197.664"/>
<g>
	<path style="fill:#999999;" d="M441.516,277.288h-29.648c-1.36,0-2.472-1.112-2.472-2.472l0,0c0-1.36,1.112-2.472,2.472-2.472
		h29.648c1.36,0,2.472,1.112,2.472,2.472l0,0C443.988,276.176,442.876,277.288,441.516,277.288z"/>
	<path style="fill:#999999;" d="M441.644,497.184h-29.648c-1.36,0-2.472-1.112-2.472-2.472l0,0c0-1.36,1.112-2.472,2.472-2.472
		h29.648c1.36,0,2.472,1.112,2.472,2.472l0,0C444.116,496.072,443.004,497.184,441.644,497.184z"/>
</g>
<circle style="fill:#8AD5DD;" cx="426.724" cy="321.12" r="26.128"/>
<polygon points="424.74,332.736 414.948,322.952 418.636,319.264 424.316,324.936 435.412,311.104 439.476,314.368 "/>
<circle style="fill:#DB2B42;" cx="426.724" cy="383.528" r="26.128"/>
<polygon style="fill:#FFFFFF;" points="424.74,395.16 414.948,385.376 418.636,381.688 424.316,387.36 435.412,373.536 
	439.476,376.792 "/>
<circle style="fill:#8AD5DD;" cx="426.724" cy="445.952" r="26.128"/>
<polygon points="424.74,457.584 414.948,447.8 418.636,444.112 424.316,449.784 435.412,435.96 439.476,439.216 "/>
</svg>